<svg width="94" height="87" xmlns="http://www.w3.org/2000/svg" xmlns:xlink="http://www.w3.org/1999/xlink" overflow="hidden"><g transform="translate(-305 -559)"><path d="M4.60002 0 87.4 0C87.4 0 87.4002 0 87.4002 0 89.9556 0.0152248 92.015 2.12668 92 4.71616L92 61.392C92 61.392 92 61.3921 92 61.3921 92.0149 63.9816 89.9554 66.093 87.4 66.108L36.8 66.108 18.4 85 18.4 66.108 4.60002 66.108C4.60002 66.108 4.59981 66.108 4.59981 66.108 2.04438 66.0928-0.0150247 63.9815 0 61.392L0 4.71616C0 4.71616 0 4.71595 0 4.71595-0.0149217 2.12647 2.04459 0.0151206 4.60002 0Z" fill="#E0144C" fill-rule="evenodd" transform="matrix(-1 0 0 1 398 560)"/><path d="M369.602 593.877C370.825 598.8 365.73 603.656 360.703 601.633 356.491 600.149 354.86 595.293 357.781 591.112 364.371 582.412 359.548 568.721 348.61 564 353.569 573.307 345.96 581.872 341.612 585.447 337.265 589.021 334.343 592.73 333.46 594.888 329.044 605.544 335.634 615.728 340.118 618.156 338.08 613.57 336.178 604.802 344.194 596.574 344.194 596.574 341.884 605.342 346.912 611.412 351.939 617.481 351.871 622 351.871 622 359.684 622 367.089 617.346 370.214 609.726 372.592 605.207 372.795 598.058 369.602 593.877" fill="#FFFFFF" fill-rule="evenodd"/></g></svg>