<svg width="94" height="87" xmlns="http://www.w3.org/2000/svg" xmlns:xlink="http://www.w3.org/1999/xlink" overflow="hidden"><g transform="translate(-64 -556)"><path d="M4.60002 0 87.4 0C87.4 0 87.4002 0 87.4002 0 89.9556 0.015404 92.015 2.1517 92 4.77164L92 62.1143C92 62.1143 92 62.1144 92 62.1144 92.0149 64.7343 89.9554 66.8706 87.4 66.8858L36.8 66.8858 18.4 86 18.4 66.8858 4.60002 66.8858C4.60002 66.8858 4.59981 66.8858 4.59981 66.8858 2.04438 66.8704-0.0150247 64.7342 0 62.1143L0 4.77164C0 4.77164 0 4.77143 0 4.77143-0.0149217 2.15149 2.04459 0.0152985 4.60002 0Z" fill="#B4DCFA" fill-rule="evenodd" transform="matrix(-1 0 0 1 157 557)"/><path d="M128.602 591.392C129.825 596.4 124.73 601.339 119.703 599.281 115.491 597.772 113.86 592.833 116.781 588.579 123.371 579.729 118.548 565.802 107.61 561 112.569 570.467 104.96 579.18 100.612 582.816 96.2645 586.452 93.3433 590.226 92.46 592.421 88.0442 603.26 94.6341 613.62 99.1179 616.09 97.0798 611.424 95.1776 602.506 103.194 594.136 103.194 594.136 100.884 603.055 105.912 609.229 110.939 615.403 110.871 620 110.871 620 118.684 620 126.089 615.266 129.214 607.514 131.592 602.917 131.795 595.645 128.602 591.392" fill="#FFFFFF" fill-rule="evenodd"/></g></svg>