<svg width="93" height="87" xmlns="http://www.w3.org/2000/svg" xmlns:xlink="http://www.w3.org/1999/xlink" overflow="hidden"><defs><clipPath id="clip0"><rect x="545" y="559" width="93" height="87"/></clipPath></defs><g clip-path="url(#clip0)" transform="translate(-545 -559)"><path d="M4.65002 0 88.35 0C88.35 0 88.3502 0 88.3502 0 90.9334 0.0152248 93.0152 2.12668 93 4.71616L93 61.392C93 61.392 93 61.3921 93 61.3921 93.0151 63.9816 90.9332 66.093 88.35 66.108L37.2 66.108 18.6 85 18.6 66.108 4.65002 66.108C4.65002 66.108 4.64981 66.108 4.64981 66.108 2.0666 66.0928-0.015188 63.9815 0 61.392L0 4.71616C0 4.71616 0 4.71595 0 4.71595-0.0150839 2.12647 2.06681 0.0151206 4.65002 0Z" fill="#FFFFFF" fill-rule="evenodd" transform="matrix(-1 0 0 1 638 560)"/><path d="M608.602 593.877C609.825 598.8 604.73 603.656 599.703 601.633 595.491 600.149 593.86 595.293 596.781 591.112 603.371 582.412 598.548 568.721 587.61 564 592.569 573.307 584.96 581.872 580.612 585.447 576.265 589.021 573.343 592.73 572.46 594.888 568.044 605.544 574.634 615.728 579.118 618.156 577.08 613.57 575.178 604.802 583.194 596.574 583.194 596.574 580.884 605.342 585.912 611.412 590.939 617.481 590.871 622 590.871 622 598.684 622 606.089 617.346 609.214 609.726 611.592 605.207 611.795 598.058 608.602 593.877" fill="#F2F2F2" fill-rule="evenodd"/></g></svg>