<svg width="1280" height="720" xmlns="http://www.w3.org/2000/svg" xmlns:xlink="http://www.w3.org/1999/xlink" overflow="hidden"><defs><clipPath id="clip0"><rect x="0" y="0" width="1280" height="720"/></clipPath><linearGradient x1="644.498" y1="646.67" x2="635.502" y2="775.33" gradientUnits="userSpaceOnUse" spreadMethod="reflect" id="stroke1"><stop offset="0" stop-color="#FFFFFF"/><stop offset="0.22" stop-color="#FFFFFF"/><stop offset="0.85" stop-color="#00529C"/><stop offset="1" stop-color="#00529C"/></linearGradient><linearGradient x1="553.681" y1="268.66" x2="726.319" y2="-205.66" gradientUnits="userSpaceOnUse" spreadMethod="reflect" id="stroke2"><stop offset="0" stop-color="#00529C"/><stop offset="0.32" stop-color="#00529C"/><stop offset="0.57" stop-color="#00529C"/><stop offset="0.67" stop-color="#FFFFFF"/><stop offset="1" stop-color="#FFFFFF"/></linearGradient><linearGradient x1="938.35" y1="49.953" x2="1196.78" y2="49.953" gradientUnits="userSpaceOnUse" spreadMethod="reflect" id="fill3"><stop offset="0" stop-color="#00529C"/><stop offset="0.11" stop-color="#00529C"/><stop offset="1" stop-color="#E0144C"/></linearGradient><linearGradient x1="1216.51" y1="57.4944" x2="1261.49" y2="11.5056" gradientUnits="userSpaceOnUse" spreadMethod="reflect" id="fill4"><stop offset="0" stop-color="#00529C"/><stop offset="0.00448431" stop-color="#01519B"/><stop offset="0.00896861" stop-color="#03519B"/><stop offset="0.0134529" stop-color="#05519B"/><stop offset="0.0179372" stop-color="#07519B"/><stop offset="0.0224215" stop-color="#09519B"/><stop offset="0.0269058" stop-color="#0B519B"/><stop offset="0.0313901" stop-color="#0D519B"/><stop offset="0.0358744" stop-color="#0E519B"/><stop offset="0.0403587" stop-color="#10519B"/><stop offset="0.044843" stop-color="#12519B"/><stop offset="0.0493274" stop-color="#14519B"/><stop offset="0.0538117" stop-color="#16519B"/><stop offset="0.058296" stop-color="#17519B"/><stop offset="0.0627803" stop-color="#19519B"/><stop offset="0.0672646" stop-color="#1B519B"/><stop offset="0.0717489" stop-color="#1D519B"/><stop offset="0.0762332" stop-color="#1E519B"/><stop offset="0.0807175" stop-color="#20519B"/><stop offset="0.0852018" stop-color="#22519B"/><stop offset="0.0896861" stop-color="#24519B"/><stop offset="0.0941704" stop-color="#25519B"/><stop offset="0.0986547" stop-color="#27519A"/><stop offset="0.103139" stop-color="#29519A"/><stop offset="0.107623" stop-color="#2B519A"/><stop offset="0.112108" stop-color="#2C509A"/><stop offset="0.116592" stop-color="#2E509A"/><stop offset="0.121076" stop-color="#30509A"/><stop offset="0.125561" stop-color="#31509A"/><stop offset="0.130045" stop-color="#33509A"/><stop offset="0.134529" stop-color="#35509A"/><stop offset="0.139013" stop-color="#36509A"/><stop offset="0.143498" stop-color="#385099"/><stop offset="0.147982" stop-color="#3A5099"/><stop offset="0.152466" stop-color="#3B5099"/><stop offset="0.156951" stop-color="#3D5099"/><stop offset="0.161435" stop-color="#3E4F99"/><stop offset="0.165919" stop-color="#404F99"/><stop offset="0.170404" stop-color="#424F99"/><stop offset="0.174888" stop-color="#434F98"/><stop offset="0.179372" stop-color="#454F98"/><stop offset="0.183857" stop-color="#464F98"/><stop offset="0.188341" stop-color="#484F98"/><stop offset="0.192825" stop-color="#4A4F98"/><stop offset="0.197309" stop-color="#4B4F98"/><stop offset="0.201794" stop-color="#4D4E98"/><stop offset="0.206278" stop-color="#4E4E97"/><stop offset="0.210762" stop-color="#504E97"/><stop offset="0.215247" stop-color="#514E97"/><stop offset="0.219731" stop-color="#534E97"/><stop offset="0.224215" stop-color="#544E97"/><stop offset="0.2287" stop-color="#564E96"/><stop offset="0.233184" stop-color="#574D96"/><stop offset="0.237668" stop-color="#594D96"/><stop offset="0.242152" stop-color="#5A4D96"/><stop offset="0.246637" stop-color="#5C4D96"/><stop offset="0.251121" stop-color="#5D4D96"/><stop offset="0.255605" stop-color="#5F4D95"/><stop offset="0.26009" stop-color="#604D95"/><stop offset="0.264574" stop-color="#624C95"/><stop offset="0.269058" stop-color="#634C95"/><stop offset="0.273543" stop-color="#644C94"/><stop offset="0.278027" stop-color="#664C94"/><stop offset="0.282511" stop-color="#674C94"/><stop offset="0.286996" stop-color="#694C94"/><stop offset="0.29148" stop-color="#6A4B94"/><stop offset="0.295964" stop-color="#6B4B93"/><stop offset="0.300448" stop-color="#6D4B93"/><stop offset="0.304933" stop-color="#6E4B93"/><stop offset="0.309417" stop-color="#704B93"/><stop offset="0.313901" stop-color="#714A92"/><stop offset="0.318386" stop-color="#724A92"/><stop offset="0.32287" stop-color="#744A92"/><stop offset="0.327354" stop-color="#754A92"/><stop offset="0.331839" stop-color="#764A91"/><stop offset="0.336323" stop-color="#784991"/><stop offset="0.340807" stop-color="#794991"/><stop offset="0.345291" stop-color="#7A4991"/><stop offset="0.349776" stop-color="#7C4990"/><stop offset="0.35426" stop-color="#7D4990"/><stop offset="0.358744" stop-color="#7E4890"/><stop offset="0.363229" stop-color="#7F4890"/><stop offset="0.367713" stop-color="#81488F"/><stop offset="0.372197" stop-color="#82488F"/><stop offset="0.376682" stop-color="#83488F"/><stop offset="0.381166" stop-color="#84478E"/><stop offset="0.38565" stop-color="#86478E"/><stop offset="0.390135" stop-color="#87478E"/><stop offset="0.394619" stop-color="#88478E"/><stop offset="0.399103" stop-color="#89468D"/><stop offset="0.403587" stop-color="#8B468D"/><stop offset="0.408072" stop-color="#8C468D"/><stop offset="0.412556" stop-color="#8D468C"/><stop offset="0.41704" stop-color="#8E458C"/><stop offset="0.421525" stop-color="#8F458C"/><stop offset="0.426009" stop-color="#90458B"/><stop offset="0.430493" stop-color="#92458B"/><stop offset="0.434978" stop-color="#93448B"/><stop offset="0.439462" stop-color="#94448A"/><stop offset="0.443946" stop-color="#95448A"/><stop offset="0.44843" stop-color="#96448A"/><stop offset="0.452915" stop-color="#974389"/><stop offset="0.457399" stop-color="#984389"/><stop offset="0.461883" stop-color="#994389"/><stop offset="0.466368" stop-color="#9B4388"/><stop offset="0.470852" stop-color="#9C4288"/><stop offset="0.475336" stop-color="#9D4288"/><stop offset="0.479821" stop-color="#9E4287"/><stop offset="0.484305" stop-color="#9F4287"/><stop offset="0.488789" stop-color="#A04187"/><stop offset="0.493274" stop-color="#A14186"/><stop offset="0.497758" stop-color="#A24186"/><stop offset="0.502242" stop-color="#A34086"/><stop offset="0.506726" stop-color="#A44085"/><stop offset="0.511211" stop-color="#A54085"/><stop offset="0.515695" stop-color="#A64084"/><stop offset="0.520179" stop-color="#A73F84"/><stop offset="0.524664" stop-color="#A83F84"/><stop offset="0.529148" stop-color="#A93F83"/><stop offset="0.533632" stop-color="#AA3E83"/><stop offset="0.538117" stop-color="#AB3E82"/><stop offset="0.542601" stop-color="#AC3E82"/><stop offset="0.547085" stop-color="#AD3D82"/><stop offset="0.55157" stop-color="#AE3D81"/><stop offset="0.556054" stop-color="#AF3D81"/><stop offset="0.560538" stop-color="#B03D80"/><stop offset="0.565022" stop-color="#B03C80"/><stop offset="0.569507" stop-color="#B13C80"/><stop offset="0.573991" stop-color="#B23C7F"/><stop offset="0.578475" stop-color="#B33B7F"/><stop offset="0.58296" stop-color="#B43B7E"/><stop offset="0.587444" stop-color="#B53B7E"/><stop offset="0.591928" stop-color="#B63A7E"/><stop offset="0.596413" stop-color="#B73A7D"/><stop offset="0.600897" stop-color="#B73A7D"/><stop offset="0.605381" stop-color="#B8397C"/><stop offset="0.609865" stop-color="#B9397C"/><stop offset="0.61435" stop-color="#BA397B"/><stop offset="0.618834" stop-color="#BB387B"/><stop offset="0.623318" stop-color="#BC387B"/><stop offset="0.627803" stop-color="#BC387A"/><stop offset="0.632287" stop-color="#BD377A"/><stop offset="0.636771" stop-color="#BE3779"/><stop offset="0.641256" stop-color="#BF3779"/><stop offset="0.64574" stop-color="#BF3678"/><stop offset="0.650224" stop-color="#C03678"/><stop offset="0.654709" stop-color="#C13577"/><stop offset="0.659193" stop-color="#C23577"/><stop offset="0.663677" stop-color="#C23576"/><stop offset="0.668161" stop-color="#C33476"/><stop offset="0.672646" stop-color="#C43475"/><stop offset="0.67713" stop-color="#C53475"/><stop offset="0.681614" stop-color="#C53375"/><stop offset="0.686099" stop-color="#C63374"/><stop offset="0.690583" stop-color="#C73374"/><stop offset="0.695067" stop-color="#C73273"/><stop offset="0.699552" stop-color="#C83273"/><stop offset="0.704036" stop-color="#C93172"/><stop offset="0.70852" stop-color="#C93172"/><stop offset="0.713004" stop-color="#CA3171"/><stop offset="0.717489" stop-color="#CB3071"/><stop offset="0.721973" stop-color="#CB3070"/><stop offset="0.726457" stop-color="#CC2F70"/><stop offset="0.730942" stop-color="#CC2F6F"/><stop offset="0.735426" stop-color="#CD2F6F"/><stop offset="0.73991" stop-color="#CE2E6E"/><stop offset="0.744395" stop-color="#CE2E6E"/><stop offset="0.748879" stop-color="#CF2D6D"/><stop offset="0.753363" stop-color="#CF2D6C"/><stop offset="0.757848" stop-color="#D02D6C"/><stop offset="0.762332" stop-color="#D02C6B"/><stop offset="0.766816" stop-color="#D12C6B"/><stop offset="0.7713" stop-color="#D12B6A"/><stop offset="0.775785" stop-color="#D22B6A"/><stop offset="0.780269" stop-color="#D22B69"/><stop offset="0.784753" stop-color="#D32A69"/><stop offset="0.789238" stop-color="#D32A68"/><stop offset="0.793722" stop-color="#D42968"/><stop offset="0.798206" stop-color="#D42967"/><stop offset="0.802691" stop-color="#D52867"/><stop offset="0.807175" stop-color="#D52866"/><stop offset="0.811659" stop-color="#D62865"/><stop offset="0.816144" stop-color="#D62765"/><stop offset="0.820628" stop-color="#D72764"/><stop offset="0.825112" stop-color="#D72664"/><stop offset="0.829596" stop-color="#D72663"/><stop offset="0.834081" stop-color="#D82563"/><stop offset="0.838565" stop-color="#D82562"/><stop offset="0.843049" stop-color="#D92461"/><stop offset="0.847534" stop-color="#D92461"/><stop offset="0.852018" stop-color="#D92460"/><stop offset="0.856502" stop-color="#DA2360"/><stop offset="0.860987" stop-color="#DA235F"/><stop offset="0.865471" stop-color="#DA225E"/><stop offset="0.869955" stop-color="#DB225E"/><stop offset="0.874439" stop-color="#DB215D"/><stop offset="0.878924" stop-color="#DB215D"/><stop offset="0.883408" stop-color="#DC205C"/><stop offset="0.887892" stop-color="#DC205B"/><stop offset="0.892377" stop-color="#DC1F5B"/><stop offset="0.896861" stop-color="#DC1F5A"/><stop offset="0.901345" stop-color="#DD1E5A"/><stop offset="0.90583" stop-color="#DD1E59"/><stop offset="0.910314" stop-color="#DD1E58"/><stop offset="0.914798" stop-color="#DD1D58"/><stop offset="0.919282" stop-color="#DE1D57"/><stop offset="0.923767" stop-color="#DE1C57"/><stop offset="0.928251" stop-color="#DE1C56"/><stop offset="0.932735" stop-color="#DE1B55"/><stop offset="0.93722" stop-color="#DE1B55"/><stop offset="0.941704" stop-color="#DE1A54"/><stop offset="0.946188" stop-color="#DF1A53"/><stop offset="0.950673" stop-color="#DF1953"/><stop offset="0.955157" stop-color="#DF1952"/><stop offset="0.959641" stop-color="#DF1851"/><stop offset="0.964126" stop-color="#DF1851"/><stop offset="0.96861" stop-color="#DF1750"/><stop offset="0.973094" stop-color="#DF174F"/><stop offset="0.977578" stop-color="#DF164F"/><stop offset="0.982063" stop-color="#DF164E"/><stop offset="0.986547" stop-color="#DF154E"/><stop offset="0.991031" stop-color="#DF154D"/><stop offset="0.995516" stop-color="#DF144C"/><stop offset="1" stop-color="#E0144C"/></linearGradient><linearGradient x1="1229.79" y1="44.2961" x2="1248.21" y2="-6.29597" gradientUnits="userSpaceOnUse" spreadMethod="reflect" id="fill5"><stop offset="0" stop-color="#00529C"/><stop offset="0.28" stop-color="#00529C"/><stop offset="0.73" stop-color="#E0144C"/><stop offset="1" stop-color="#E0144C"/></linearGradient><linearGradient x1="55.2469" y1="708.499" x2="295.507" y2="708.499" gradientUnits="userSpaceOnUse" spreadMethod="reflect" id="fill6"><stop offset="0" stop-color="#00529C"/><stop offset="0.9" stop-color="#E0144C"/><stop offset="1" stop-color="#E0144C"/></linearGradient><linearGradient x1="55.2469" y1="708.499" x2="295.507" y2="708.499" gradientUnits="userSpaceOnUse" spreadMethod="reflect" id="fill7"><stop offset="0" stop-color="#00529C"/><stop offset="0.9" stop-color="#E0144C"/><stop offset="1" stop-color="#E0144C"/></linearGradient><linearGradient x1="55.2469" y1="708.499" x2="295.507" y2="708.499" gradientUnits="userSpaceOnUse" spreadMethod="reflect" id="fill8"><stop offset="0" stop-color="#00529C"/><stop offset="0.9" stop-color="#E0144C"/><stop offset="1" stop-color="#E0144C"/></linearGradient><linearGradient x1="55.2469" y1="708.499" x2="295.507" y2="708.499" gradientUnits="userSpaceOnUse" spreadMethod="reflect" id="fill9"><stop offset="0" stop-color="#00529C"/><stop offset="0.9" stop-color="#E0144C"/><stop offset="1" stop-color="#E0144C"/></linearGradient><linearGradient x1="55.2469" y1="708.499" x2="295.507" y2="708.499" gradientUnits="userSpaceOnUse" spreadMethod="reflect" id="fill10"><stop offset="0" stop-color="#00529C"/><stop offset="0.9" stop-color="#E0144C"/><stop offset="1" stop-color="#E0144C"/></linearGradient><linearGradient x1="55.2469" y1="708.499" x2="295.507" y2="708.499" gradientUnits="userSpaceOnUse" spreadMethod="reflect" id="fill11"><stop offset="0" stop-color="#00529C"/><stop offset="0.9" stop-color="#E0144C"/><stop offset="1" stop-color="#E0144C"/></linearGradient></defs><g clip-path="url(#clip0)"><rect x="0" y="0" width="1280" height="720" fill="#D1E9FF"/><path d="M1280 730 290.461 730 290.461 730 0 730 0 692 345.734 692 377.584 709.593 1280 709.593Z" stroke="url(#stroke1)" stroke-width="1.66667" stroke-linejoin="round" stroke-miterlimit="10" fill="#FFFFFF" fill-rule="evenodd"/><path d="M0-3 989.539-3 989.539-2.99989 1280-2.99989 1280 66 934.266 66 902.416 34.0556 0 34.0556Z" stroke="url(#stroke2)" stroke-width="1.66667" stroke-linejoin="round" stroke-miterlimit="10" fill="#FFFFFF" fill-rule="evenodd"/><text fill="#00529C" font-family="Trade Gothic Inline,Trade Gothic Inline_MSFontService,sans-serif" font-weight="400" font-size="37" transform="translate(938.35 36)">AUST</text><text fill="#E0144C" font-family="Trade Gothic Inline,Trade Gothic Inline_MSFontService,sans-serif" font-weight="400" font-size="37" transform="translate(1063.46 36)">INTEL</text><path d="M1087.42 45.4635C1087.36 45.8408 1087.28 46.1377 1087.2 46.3541L1085.14 52.0226 1089.75 52.0226 1087.66 46.3541C1087.59 46.1686 1087.52 45.8717 1087.45 45.4635ZM1033.42 45.4635C1033.36 45.8408 1033.28 46.1377 1033.2 46.3541L1031.14 52.0226 1035.75 52.0226 1033.66 46.3541C1033.59 46.1686 1033.52 45.8717 1033.45 45.4635ZM944.418 45.4635C944.356 45.8408 944.285 46.1377 944.204 46.3541L942.135 52.0226 946.746 52.0226 944.659 46.3541C944.591 46.1686 944.523 45.8717 944.455 45.4635ZM1010.65 45.2594 1010.65 50.0836 1012.77 50.0836C1013.16 50.0836 1013.52 50.0249 1013.85 49.9074 1014.18 49.7898 1014.47 49.6213 1014.71 49.4017 1014.95 49.1822 1015.14 48.9131 1015.27 48.5946 1015.41 48.2761 1015.48 47.9189 1015.48 47.5231 1015.48 46.8118 1015.25 46.2567 1014.79 45.8578 1014.33 45.4589 1013.66 45.2594 1012.79 45.2594ZM1177.73 43.8493 1186.96 43.8493 1186.96 45.2594 1183.12 45.2594 1183.12 57.153 1181.56 57.153 1181.56 45.2594 1177.73 45.2594ZM1165.09 43.8493 1166.65 43.8493 1166.65 49.6847 1173.54 49.6847 1173.54 43.8493 1175.1 43.8493 1175.1 57.153 1173.54 57.153 1173.54 51.0856 1166.65 51.0856 1166.65 57.153 1165.09 57.153ZM1147.09 43.8493 1148.65 43.8493 1148.65 57.153 1147.09 57.153ZM1123.09 43.8493 1125.12 43.8493 1131.78 54.2863C1132.06 54.7192 1132.24 55.0161 1132.32 55.1769L1132.35 55.1769C1132.29 54.7934 1132.26 54.1409 1132.26 53.2194L1132.26 43.8493 1133.82 43.8493 1133.82 57.153 1131.91 57.153 1125.06 46.549C1124.89 46.283 1124.75 46.0047 1124.63 45.714L1124.58 45.714C1124.63 45.9985 1124.65 46.6077 1124.65 47.5416L1124.65 57.153 1123.09 57.153ZM1118.09 43.8493 1119.65 43.8493 1119.65 57.153 1118.09 57.153ZM1104.09 43.8493 1110.85 43.8493 1110.85 45.2594 1105.65 45.2594 1105.65 49.6847 1110.46 49.6847 1110.46 51.0856 1105.65 51.0856 1105.65 55.7428 1111.15 55.7428 1111.15 57.153 1104.09 57.153ZM1092.73 43.8493 1101.96 43.8493 1101.96 45.2594 1098.12 45.2594 1098.12 57.153 1096.56 57.153 1096.56 45.2594 1092.73 45.2594ZM1086.66 43.8493 1088.27 43.8493 1093.39 57.153 1091.67 57.153 1090.26 53.4235 1084.62 53.4235 1083.29 57.153 1081.55 57.153ZM1073.73 43.8493 1082.96 43.8493 1082.96 45.2594 1079.12 45.2594 1079.12 57.153 1077.56 57.153 1077.56 45.2594 1073.73 45.2594ZM1055.09 43.8493 1061.85 43.8493 1061.85 45.2594 1056.65 45.2594 1056.65 49.6847 1061.46 49.6847 1061.46 51.0856 1056.65 51.0856 1056.65 55.7428 1062.15 55.7428 1062.15 57.153 1055.09 57.153ZM1041.09 43.8493 1042.65 43.8493 1042.65 55.7428 1048 55.7428 1048 57.153 1041.09 57.153ZM1032.66 43.8493 1034.27 43.8493 1039.39 57.153 1037.67 57.153 1036.26 53.4235 1030.62 53.4235 1029.29 57.153 1027.55 57.153ZM1020.09 43.8493 1026.85 43.8493 1026.85 45.2594 1021.65 45.2594 1021.65 49.6847 1026.46 49.6847 1026.46 51.0856 1021.65 51.0856 1021.65 55.7428 1027.15 55.7428 1027.15 57.153 1020.09 57.153ZM1009.09 43.8493 1013.07 43.8493C1013.65 43.8493 1014.18 43.9219 1014.67 44.0673 1015.17 44.2126 1015.59 44.4337 1015.96 44.7306 1016.32 45.0275 1016.6 45.397 1016.8 45.8392 1017.01 46.2815 1017.11 46.7995 1017.11 47.3932 1017.11 47.8571 1017.04 48.2823 1016.9 48.6688 1016.76 49.0554 1016.56 49.4002 1016.31 49.7033 1016.05 50.0063 1015.74 50.2645 1015.38 50.4779 1015.02 50.6913 1014.61 50.8567 1014.16 50.9743L1014.16 51.0114C1014.38 51.1103 1014.58 51.2232 1014.74 51.35 1014.9 51.4768 1015.06 51.6268 1015.21 51.7999 1015.36 51.9731 1015.5 52.1695 1015.65 52.389 1015.79 52.6086 1015.96 52.8637 1016.14 53.1544L1018.63 57.153 1016.78 57.153 1014.55 53.4235C1014.35 53.0771 1014.15 52.7818 1013.96 52.5375 1013.76 52.2932 1013.57 52.0937 1013.37 51.9391 1013.17 51.7845 1012.95 51.6716 1012.72 51.6005 1012.49 51.5294 1012.22 51.4938 1011.93 51.4938L1010.65 51.4938 1010.65 57.153 1009.09 57.153ZM989.094 43.8493 991.117 43.8493 997.778 54.2863C998.056 54.7192 998.236 55.0161 998.316 55.1769L998.353 55.1769C998.291 54.7934 998.26 54.1409 998.26 53.2194L998.26 43.8493 999.819 43.8493 999.819 57.153 997.908 57.153 991.061 46.549C990.888 46.283 990.746 46.0047 990.635 45.714L990.579 45.714C990.628 45.9985 990.653 46.6077 990.653 47.5416L990.653 57.153 989.094 57.153ZM984.094 43.8493 985.653 43.8493 985.653 57.153 984.094 57.153ZM973.731 43.8493 982.962 43.8493 982.962 45.2594 979.121 45.2594 979.121 57.153 977.562 57.153 977.562 45.2594 973.731 45.2594ZM951.927 43.8493 953.486 43.8493 953.486 51.8834C953.486 54.611 954.636 55.9747 956.937 55.9747 959.158 55.9747 960.268 54.6574 960.268 52.0226L960.268 43.8493 961.826 43.8493 961.826 51.7721C961.826 55.5078 960.141 57.3756 956.77 57.3756 953.542 57.3756 951.927 55.5789 951.927 51.9855ZM943.657 43.8493 945.271 43.8493 950.392 57.153 948.667 57.153 947.257 53.4235 941.616 53.4235 940.289 57.153 938.554 57.153ZM1192.11 43.6266C1193.42 43.6266 1194.38 43.7843 1194.98 44.0997L1194.98 45.8532C1194.19 45.3089 1193.18 45.0368 1191.95 45.0368 1191.61 45.0368 1191.27 45.0723 1190.93 45.1434 1190.59 45.2146 1190.29 45.3305 1190.02 45.4913 1189.76 45.6522 1189.54 45.8593 1189.37 46.1129 1189.21 46.3665 1189.12 46.6758 1189.12 47.0407 1189.12 47.3808 1189.19 47.6746 1189.31 47.922 1189.44 48.1694 1189.63 48.3952 1189.88 48.5993 1190.12 48.8034 1190.42 49.0013 1190.78 49.193 1191.14 49.3847 1191.55 49.595 1192.01 49.8239 1192.49 50.0589 1192.94 50.3063 1193.36 50.5661 1193.79 50.8258 1194.17 51.1134 1194.49 51.4288 1194.81 51.7443 1195.06 52.0937 1195.25 52.4772 1195.44 52.8606 1195.53 53.2998 1195.53 53.7946 1195.53 54.4502 1195.41 55.0053 1195.15 55.4599 1194.89 55.9144 1194.55 56.284 1194.11 56.5685 1193.67 56.853 1193.17 57.0586 1192.6 57.1854 1192.03 57.3122 1191.43 57.3756 1190.8 57.3756 1190.59 57.3756 1190.33 57.3586 1190.02 57.3246 1189.71 57.2906 1189.4 57.2411 1189.08 57.1762 1188.76 57.1112 1188.45 57.0308 1188.16 56.9349 1187.88 56.8391 1187.65 56.7324 1187.47 56.6149L1187.47 54.778C1187.68 54.9635 1187.94 55.1305 1188.23 55.2789 1188.52 55.4274 1188.83 55.5526 1189.16 55.6547 1189.48 55.7567 1189.81 55.8356 1190.14 55.8912 1190.46 55.9469 1190.77 55.9747 1191.04 55.9747 1192 55.9747 1192.72 55.7969 1193.19 55.4413 1193.67 55.0857 1193.9 54.5739 1193.9 53.9059 1193.9 53.5472 1193.82 53.2348 1193.67 52.9689 1193.51 52.7029 1193.29 52.4602 1193.01 52.2406 1192.73 52.021 1192.4 51.8108 1192.02 51.6098 1191.64 51.4087 1191.23 51.1969 1190.79 50.9743 1190.33 50.7392 1189.9 50.5011 1189.5 50.2599 1189.09 50.0187 1188.74 49.7527 1188.45 49.462 1188.15 49.1714 1187.92 48.842 1187.75 48.474 1187.58 48.106 1187.49 47.6746 1187.49 47.1798 1187.49 46.5737 1187.62 46.0464 1187.89 45.598 1188.16 45.1496 1188.51 44.7801 1188.94 44.4894 1189.37 44.1987 1189.86 43.9822 1190.42 43.84 1190.97 43.6977 1191.54 43.6266 1192.11 43.6266ZM1158.12 43.6266C1159.57 43.6266 1160.79 43.8616 1161.77 44.3317L1161.77 46.0573C1160.69 45.3769 1159.42 45.0368 1157.95 45.0368 1156.46 45.0368 1155.24 45.5501 1154.28 46.5768 1153.33 47.6035 1152.86 48.9332 1152.86 50.5661 1152.86 52.2483 1153.3 53.5704 1154.18 54.5321 1155.07 55.4939 1156.27 55.9747 1157.78 55.9747 1158.82 55.9747 1159.72 55.7675 1160.48 55.3532L1160.48 51.6237 1157.57 51.6237 1157.57 50.2135 1162.04 50.2135 1162.04 56.2438C1160.7 56.9983 1159.22 57.3756 1157.59 57.3756 1155.69 57.3756 1154.15 56.7633 1152.98 55.5387 1151.81 54.3141 1151.22 52.6937 1151.22 50.6774 1151.22 48.6178 1151.87 46.9278 1153.18 45.6073 1154.48 44.2868 1156.13 43.6266 1158.12 43.6266ZM1141.11 43.6266C1142.42 43.6266 1143.38 43.7843 1143.98 44.0997L1143.98 45.8532C1143.19 45.3089 1142.18 45.0368 1140.95 45.0368 1140.61 45.0368 1140.27 45.0723 1139.93 45.1434 1139.59 45.2146 1139.29 45.3305 1139.02 45.4913 1138.76 45.6522 1138.54 45.8593 1138.37 46.1129 1138.21 46.3665 1138.12 46.6758 1138.12 47.0407 1138.12 47.3808 1138.19 47.6746 1138.31 47.922 1138.44 48.1694 1138.63 48.3952 1138.88 48.5993 1139.12 48.8034 1139.42 49.0013 1139.78 49.193 1140.14 49.3847 1140.55 49.595 1141.01 49.8239 1141.49 50.0589 1141.94 50.3063 1142.36 50.5661 1142.79 50.8258 1143.16 51.1134 1143.49 51.4288 1143.81 51.7443 1144.06 52.0937 1144.25 52.4772 1144.44 52.8606 1144.53 53.2998 1144.53 53.7946 1144.53 54.4502 1144.41 55.0053 1144.15 55.4599 1143.89 55.9144 1143.55 56.284 1143.11 56.5685 1142.67 56.853 1142.17 57.0586 1141.6 57.1854 1141.03 57.3122 1140.43 57.3756 1139.8 57.3756 1139.59 57.3756 1139.33 57.3586 1139.02 57.3246 1138.71 57.2906 1138.4 57.2411 1138.08 57.1762 1137.76 57.1112 1137.45 57.0308 1137.16 56.9349 1136.88 56.8391 1136.65 56.7324 1136.47 56.6149L1136.47 54.778C1136.68 54.9635 1136.94 55.1305 1137.23 55.2789 1137.52 55.4274 1137.83 55.5526 1138.16 55.6547 1138.48 55.7567 1138.81 55.8356 1139.14 55.8912 1139.46 55.9469 1139.77 55.9747 1140.04 55.9747 1141 55.9747 1141.72 55.7969 1142.19 55.4413 1142.67 55.0857 1142.9 54.5739 1142.9 53.9059 1142.9 53.5472 1142.82 53.2348 1142.67 52.9689 1142.51 52.7029 1142.29 52.4602 1142.01 52.2406 1141.73 52.021 1141.4 51.8108 1141.02 51.6098 1140.64 51.4087 1140.23 51.1969 1139.79 50.9743 1139.33 50.7392 1138.9 50.5011 1138.5 50.2599 1138.09 50.0187 1137.74 49.7527 1137.45 49.462 1137.15 49.1714 1136.92 48.842 1136.75 48.474 1136.58 48.106 1136.49 47.6746 1136.49 47.1798 1136.49 46.5737 1136.62 46.0464 1136.89 45.598 1137.16 45.1496 1137.51 44.7801 1137.94 44.4894 1138.37 44.1987 1138.86 43.9822 1139.42 43.84 1139.97 43.6977 1140.54 43.6266 1141.11 43.6266ZM1069.11 43.6266C1070.42 43.6266 1071.38 43.7843 1071.98 44.0997L1071.98 45.8532C1071.19 45.3089 1070.18 45.0368 1068.95 45.0368 1068.61 45.0368 1068.27 45.0723 1067.93 45.1434 1067.59 45.2146 1067.29 45.3305 1067.02 45.4913 1066.76 45.6522 1066.54 45.8593 1066.37 46.1129 1066.21 46.3665 1066.12 46.6758 1066.12 47.0407 1066.12 47.3808 1066.19 47.6746 1066.31 47.922 1066.44 48.1694 1066.63 48.3952 1066.88 48.5993 1067.12 48.8034 1067.42 49.0013 1067.78 49.193 1068.14 49.3847 1068.55 49.595 1069.01 49.8239 1069.49 50.0589 1069.94 50.3063 1070.36 50.5661 1070.79 50.8258 1071.17 51.1134 1071.49 51.4288 1071.81 51.7443 1072.06 52.0937 1072.25 52.4772 1072.44 52.8606 1072.53 53.2998 1072.53 53.7946 1072.53 54.4502 1072.41 55.0053 1072.15 55.4599 1071.89 55.9144 1071.55 56.284 1071.11 56.5685 1070.67 56.853 1070.17 57.0586 1069.6 57.1854 1069.03 57.3122 1068.43 57.3756 1067.8 57.3756 1067.59 57.3756 1067.33 57.3586 1067.02 57.3246 1066.71 57.2906 1066.4 57.2411 1066.08 57.1762 1065.76 57.1112 1065.45 57.0308 1065.16 56.9349 1064.88 56.8391 1064.65 56.7324 1064.47 56.6149L1064.47 54.778C1064.68 54.9635 1064.94 55.1305 1065.23 55.2789 1065.52 55.4274 1065.83 55.5526 1066.16 55.6547 1066.48 55.7567 1066.81 55.8356 1067.14 55.8912 1067.46 55.9469 1067.77 55.9747 1068.04 55.9747 1069 55.9747 1069.72 55.7969 1070.19 55.4413 1070.67 55.0857 1070.9 54.5739 1070.9 53.9059 1070.9 53.5472 1070.82 53.2348 1070.67 52.9689 1070.51 52.7029 1070.29 52.4602 1070.01 52.2406 1069.73 52.021 1069.4 51.8108 1069.02 51.6098 1068.64 51.4087 1068.23 51.1969 1067.79 50.9743 1067.33 50.7392 1066.9 50.5011 1066.5 50.2599 1066.09 50.0187 1065.74 49.7527 1065.45 49.462 1065.15 49.1714 1064.92 48.842 1064.75 48.474 1064.58 48.106 1064.49 47.6746 1064.49 47.1798 1064.49 46.5737 1064.62 46.0464 1064.89 45.598 1065.16 45.1496 1065.51 44.7801 1065.94 44.4894 1066.37 44.1987 1066.86 43.9822 1067.42 43.84 1067.97 43.6977 1068.54 43.6266 1069.11 43.6266ZM969.112 43.6266C970.423 43.6266 971.378 43.7843 971.978 44.0997L971.978 45.8532C971.193 45.3089 970.185 45.0368 968.954 45.0368 968.614 45.0368 968.274 45.0723 967.933 45.1434 967.593 45.2146 967.29 45.3305 967.024 45.4913 966.758 45.6522 966.542 45.8593 966.375 46.1129 966.208 46.3665 966.124 46.6758 966.124 47.0407 966.124 47.3808 966.188 47.6746 966.314 47.922 966.441 48.1694 966.628 48.3952 966.876 48.5993 967.123 48.8034 967.425 49.0013 967.78 49.193 968.136 49.3847 968.546 49.595 969.01 49.8239 969.486 50.0589 969.937 50.3063 970.364 50.5661 970.791 50.8258 971.165 51.1134 971.487 51.4288 971.808 51.7443 972.063 52.0937 972.252 52.4772 972.441 52.8606 972.535 53.2998 972.535 53.7946 972.535 54.4502 972.407 55.0053 972.15 55.4599 971.893 55.9144 971.547 56.284 971.111 56.5685 970.675 56.853 970.172 57.0586 969.603 57.1854 969.034 57.3122 968.434 57.3756 967.803 57.3756 967.593 57.3756 967.333 57.3586 967.024 57.3246 966.715 57.2906 966.4 57.2411 966.078 57.1762 965.756 57.1112 965.452 57.0308 965.164 56.9349 964.876 56.8391 964.646 56.7324 964.473 56.6149L964.473 54.778C964.683 54.9635 964.935 55.1305 965.229 55.2789 965.523 55.4274 965.832 55.5526 966.157 55.6547 966.481 55.7567 966.808 55.8356 967.135 55.8912 967.463 55.9469 967.766 55.9747 968.045 55.9747 969.003 55.9747 969.719 55.7969 970.192 55.4413 970.666 55.0857 970.902 54.5739 970.902 53.9059 970.902 53.5472 970.823 53.2348 970.666 52.9689 970.508 52.7029 970.29 52.4602 970.011 52.2406 969.733 52.021 969.404 51.8108 969.023 51.6098 968.643 51.4087 968.233 51.1969 967.794 50.9743 967.33 50.7392 966.897 50.5011 966.495 50.2599 966.093 50.0187 965.744 49.7527 965.447 49.462 965.15 49.1714 964.917 48.842 964.747 48.474 964.577 48.106 964.491 47.6746 964.491 47.1798 964.491 46.5737 964.624 46.0464 964.89 45.598 965.156 45.1496 965.506 44.7801 965.939 44.4894 966.372 44.1987 966.865 43.9822 967.418 43.84 967.972 43.6977 968.536 43.6266 969.112 43.6266Z" fill="url(#fill3)" fill-rule="evenodd"/><text fill="#000000" fill-opacity="0" font-family="Arial,Arial_MSFontService,sans-serif" font-size="13.749" x="938.554" y="55.657">AUSTIN REAL ESTATE INSIGHTS</text><path d="M1239 12 1262 34.0361 1262 57 1247.19 57 1243.6 57 1234.4 57 1232.53 57 1216 57 1216 34.0361Z" fill="url(#fill4)" fill-rule="evenodd"/><path d="M1250.71 44.0594C1250.13 43.4738 1249.25 43.1809 1248.44 43.3639L1246.79 41.7533C1248.26 39.8499 1249.06 37.5072 1249.06 35.0913 1249.1 28.9784 1244.15 24.0368 1238.07 24.0002 1231.98 23.9636 1227.04 28.9052 1227 34.9816 1226.96 41.0578 1231.91 45.9994 1238 46.036 1240.41 46.036 1242.8 45.2307 1244.74 43.7666L1246.35 45.3772C1246.21 46.2191 1246.46 47.061 1247.05 47.6832L1251.63 52.2588C1252.62 53.2471 1254.27 53.2471 1255.26 52.2588 1256.25 51.2705 1256.25 49.6233 1255.26 48.635L1250.71 44.0594ZM1238.07 43.8398C1233.19 43.8398 1229.27 39.9231 1229.27 35.0547 1229.27 30.1863 1233.19 26.2697 1238.07 26.2697 1242.94 26.2697 1246.86 30.1863 1246.86 35.0547 1246.86 39.8865 1242.91 43.8398 1238.07 43.8398Z" fill="#FFFFFF" fill-rule="evenodd"/><path d="M1245.96 34.8113 1243.85 34.8113C1243.66 34.8461 1243.48 34.9504 1243.36 35.0895L1241.95 36.515 1240.77 32.6557C1240.65 32.3428 1240.28 32.1342 1239.95 32.2385 1239.76 32.3081 1239.58 32.4123 1239.5 32.621L1237.28 38.1491 1235.75 30.5001C1235.68 30.1524 1235.35 29.9437 1235.01 30.0133 1234.79 30.0481 1234.6 30.222 1234.49 30.4305L1232.9 34.8113 1230 34.8113 1230 36.2021 1233.38 36.2021C1233.68 36.1673 1233.94 35.9586 1234.01 35.6805L1234.94 33.0382 1236.42 40.5133C1236.46 40.7914 1236.72 41.0001 1237.02 41.0001L1237.09 41.0001C1237.35 41.0001 1237.61 40.8609 1237.72 40.6176L1240.1 34.7766 1241.06 37.9057C1241.17 38.2186 1241.51 38.4272 1241.88 38.3229 1241.99 38.2882 1242.1 38.2186 1242.18 38.1491L1244.18 36.2021 1246 36.2021 1246 34.8113Z" fill="#FFFFFF" fill-rule="evenodd"/><path d="M1239 2 1239 2 1207 33.0503 1210.43 36.0001 1239 8.36531 1239 8.36531 1267.57 36.0001 1271 33.0503Z" fill="url(#fill5)" fill-rule="evenodd"/><path d="M94.4886 706.857C93.7712 706.857 93.162 707.113 92.661 707.627 92.16 708.14 91.8508 708.811 91.7333 709.64L96.8636 709.64C96.8574 708.762 96.6456 708.078 96.2281 707.59 95.8107 707.101 95.2308 706.857 94.4886 706.857ZM70.869 706.857C69.8918 706.857 69.1187 707.189 68.5497 707.854 67.9807 708.519 67.6962 709.436 67.6962 710.605 67.6962 711.73 67.9837 712.618 68.5589 713.267 69.1341 713.917 69.9042 714.241 70.869 714.241 71.8524 714.241 72.6085 713.923 73.1373 713.286 73.6661 712.649 73.9305 711.743 73.9305 710.568 73.9305 709.38 73.6661 708.465 73.1373 707.822 72.6085 707.178 71.8524 706.857 70.869 706.857ZM76.4696 705.799 78.0653 705.799 80.0321 712.943C80.0939 713.159 80.1372 713.444 80.162 713.796L80.2362 713.796C80.2547 713.524 80.3104 713.233 80.4032 712.924L82.5926 705.799 83.9842 705.799 85.951 712.961C86.0129 713.19 86.0593 713.475 86.0902 713.815L86.1644 713.815C86.1768 713.573 86.2294 713.289 86.3221 712.961L88.2518 705.799 89.7547 705.799 86.9066 715.299 85.3295 715.299 83.3719 708.499C83.2977 708.239 83.2482 707.945 83.2235 707.617L83.1864 707.617C83.1678 707.84 83.1029 708.128 82.9916 708.48L80.8671 715.299 79.3456 715.299ZM104.832 705.632C105.228 705.632 105.531 705.675 105.741 705.762L105.741 707.339C105.475 707.135 105.092 707.033 104.591 707.033 103.941 707.033 103.399 707.339 102.963 707.951 102.526 708.564 102.308 709.399 102.308 710.456L102.308 715.299 100.787 715.299 100.787 705.799 102.308 705.799 102.308 707.757 102.346 707.757C102.562 707.089 102.893 706.568 103.338 706.193 103.784 705.819 104.281 705.632 104.832 705.632ZM94.5165 705.576C95.7596 705.576 96.7214 705.978 97.4017 706.782 98.082 707.587 98.4222 708.703 98.4222 710.132L98.4222 710.929 91.7147 710.929C91.7394 711.987 92.0239 712.803 92.5682 713.379 93.1125 713.954 93.8609 714.241 94.8133 714.241 95.8833 714.241 96.8667 713.889 97.7635 713.184L97.7635 714.613C96.9286 715.219 95.8246 715.522 94.4515 715.522 93.1094 715.522 92.0549 715.09 91.2879 714.228 90.521 713.365 90.1376 712.151 90.1376 710.586 90.1376 709.108 90.5566 707.904 91.3946 706.973 92.2327 706.042 93.2733 705.576 94.5165 705.576ZM70.9803 705.576C72.3967 705.576 73.5022 706.012 74.297 706.885 75.0917 707.757 75.4891 708.966 75.4891 710.512 75.4891 712.027 75.0608 713.241 74.2042 714.153 73.3476 715.066 72.1988 715.522 70.7577 715.522 69.3537 715.522 68.2327 715.078 67.3946 714.19 66.5566 713.303 66.1376 712.126 66.1376 710.66 66.1376 709.065 66.5736 707.818 67.4457 706.922 68.3177 706.025 69.496 705.576 70.9803 705.576ZM58.5497 703.406 58.5497 708.861 60.1825 708.861C61.2587 708.861 62.0797 708.615 62.6456 708.123 63.2115 707.631 63.4945 706.937 63.4945 706.04 63.4945 704.284 62.4554 703.406 60.3773 703.406ZM56.9911 701.995 60.6463 701.995C62.0689 701.995 63.1713 702.342 63.9537 703.034 64.7361 703.727 65.1273 704.704 65.1273 705.966 65.1273 707.228 64.6928 708.261 63.8238 709.065 62.9549 709.869 61.7813 710.271 60.3031 710.271L58.5497 710.271 58.5497 715.299 56.9911 715.299Z" fill="url(#fill6)" fill-rule="evenodd"/><text fill="#000000" fill-opacity="0" font-family="Arial,Arial_MSFontService,sans-serif" font-size="13.5264" x="56.9911" y="713.831">Power</text><path d="M114.263 709.102 114.263 713.889 116.378 713.889C117.294 713.889 118.003 713.672 118.507 713.24 119.011 712.807 119.263 712.213 119.263 711.458 119.263 709.887 118.193 709.102 116.054 709.102ZM114.263 703.406 114.263 707.701 115.859 707.701C116.712 707.701 117.383 707.495 117.872 707.084 118.36 706.673 118.605 706.093 118.605 705.344 118.605 704.052 117.754 703.406 116.054 703.406ZM112.704 701.995 116.49 701.995C117.64 701.995 118.552 702.277 119.226 702.84 119.901 703.402 120.238 704.135 120.238 705.038 120.238 705.793 120.034 706.448 119.625 707.005 119.217 707.562 118.654 707.958 117.937 708.193L117.937 708.23C118.834 708.335 119.551 708.674 120.089 709.246 120.627 709.818 120.896 710.561 120.896 711.477 120.896 712.615 120.488 713.536 119.672 714.241 118.855 714.947 117.826 715.299 116.582 715.299L112.704 715.299Z" fill="url(#fill7)" fill-rule="evenodd"/><text fill="#000000" fill-opacity="0" font-family="Arial,Arial_MSFontService,sans-serif" font-size="13.3037" x="112.704" y="713.636">B</text><path d="M123.371 701.995 124.93 701.995 124.93 715.299 123.371 715.299Z" fill="url(#fill8)" fill-rule="evenodd"/><text fill="#000000" fill-opacity="0" font-family="Arial,Arial_MSFontService,sans-serif" font-size="13.3037" x="123.371" y="713.636">I</text><path d="M218.862 713.416C219.153 713.416 219.401 713.519 219.605 713.727 219.809 713.934 219.911 714.18 219.911 714.464 219.911 714.749 219.809 714.993 219.605 715.197 219.401 715.401 219.153 715.503 218.862 715.503 218.578 715.503 218.335 715.401 218.134 715.197 217.933 714.993 217.833 714.749 217.833 714.464 217.833 714.18 217.933 713.934 218.134 713.727 218.335 713.519 218.578 713.416 218.862 713.416ZM205.035 706.857C204.318 706.857 203.709 707.113 203.208 707.627 202.707 708.14 202.397 708.811 202.28 709.64L207.41 709.64C207.404 708.762 207.192 708.078 206.775 707.59 206.357 707.101 205.777 706.857 205.035 706.857ZM194.796 706.857C193.912 706.857 193.2 707.164 192.662 707.78 192.124 708.395 191.855 709.167 191.855 710.094L191.855 711.421C191.855 712.207 192.11 712.873 192.62 713.42 193.131 713.968 193.779 714.241 194.564 714.241 195.486 714.241 196.208 713.889 196.73 713.184 197.253 712.479 197.514 711.498 197.514 710.243 197.514 709.185 197.27 708.357 196.781 707.757 196.293 707.157 195.631 706.857 194.796 706.857ZM183.416 706.857C182.438 706.857 181.665 707.189 181.096 707.854 180.527 708.519 180.243 709.436 180.243 710.605 180.243 711.73 180.53 712.618 181.106 713.267 181.681 713.917 182.451 714.241 183.416 714.241 184.399 714.241 185.155 713.923 185.684 713.286 186.213 712.649 186.477 711.743 186.477 710.568 186.477 709.38 186.213 708.465 185.684 707.822 185.155 707.178 184.399 706.857 183.416 706.857ZM169.035 706.857C168.318 706.857 167.709 707.113 167.208 707.627 166.707 708.14 166.397 708.811 166.28 709.64L171.41 709.64C171.404 708.762 171.192 708.078 170.775 707.59 170.357 707.101 169.777 706.857 169.035 706.857ZM150.035 706.857C149.318 706.857 148.709 707.113 148.208 707.627 147.707 708.14 147.397 708.811 147.28 709.64L152.41 709.64C152.404 708.762 152.192 708.078 151.775 707.59 151.357 707.101 150.777 706.857 150.035 706.857ZM154.923 705.799 156.593 705.799 159.006 712.701C159.185 713.209 159.296 713.651 159.339 714.028L159.377 714.028C159.438 713.552 159.537 713.122 159.673 712.739L162.197 705.799 163.802 705.799 160.017 715.299 158.523 715.299ZM215.379 705.632C215.774 705.632 216.077 705.675 216.288 705.762L216.288 707.339C216.022 707.135 215.638 707.033 215.137 707.033 214.488 707.033 213.945 707.339 213.509 707.951 213.073 708.564 212.855 709.399 212.855 710.456L212.855 715.299 211.334 715.299 211.334 705.799 212.855 705.799 212.855 707.757 212.892 707.757C213.109 707.089 213.44 706.568 213.885 706.193 214.33 705.819 214.828 705.632 215.379 705.632ZM218.862 705.595C219.153 705.595 219.401 705.694 219.605 705.892 219.809 706.09 219.911 706.331 219.911 706.615 219.911 706.9 219.809 707.144 219.605 707.348 219.401 707.552 219.153 707.655 218.862 707.655 218.578 707.655 218.335 707.552 218.134 707.348 217.933 707.144 217.833 706.9 217.833 706.615 217.833 706.331 217.933 706.09 218.134 705.892 218.335 705.694 218.578 705.595 218.862 705.595ZM205.063 705.576C206.306 705.576 207.268 705.978 207.948 706.782 208.629 707.587 208.969 708.703 208.969 710.132L208.969 710.929 202.261 710.929C202.286 711.987 202.571 712.803 203.115 713.379 203.659 713.954 204.408 714.241 205.36 714.241 206.43 714.241 207.413 713.889 208.31 713.184L208.31 714.613C207.475 715.219 206.371 715.522 204.998 715.522 203.656 715.522 202.602 715.09 201.835 714.228 201.068 713.365 200.684 712.151 200.684 710.586 200.684 709.108 201.103 707.904 201.941 706.973 202.779 706.042 203.82 705.576 205.063 705.576ZM195.176 705.576C196.401 705.576 197.357 706.002 198.043 706.852 198.73 707.703 199.073 708.842 199.073 710.271 199.073 711.86 198.686 713.133 197.913 714.088 197.14 715.044 196.082 715.522 194.74 715.522 193.51 715.522 192.56 714.99 191.892 713.926L191.855 713.926 191.855 719.669 190.334 719.669 190.334 705.799 191.855 705.799 191.855 707.469 191.892 707.469C192.641 706.207 193.735 705.576 195.176 705.576ZM183.527 705.576C184.943 705.576 186.049 706.012 186.844 706.885 187.638 707.757 188.036 708.966 188.036 710.512 188.036 712.027 187.607 713.241 186.751 714.153 185.894 715.066 184.745 715.522 183.304 715.522 181.9 715.522 180.779 715.078 179.941 714.19 179.103 713.303 178.684 712.126 178.684 710.66 178.684 709.065 179.12 707.818 179.992 706.922 180.864 706.025 182.043 705.576 183.527 705.576ZM169.063 705.576C170.306 705.576 171.268 705.978 171.948 706.782 172.629 707.587 172.969 708.703 172.969 710.132L172.969 710.929 166.261 710.929C166.286 711.987 166.571 712.803 167.115 713.379 167.659 713.954 168.408 714.241 169.36 714.241 170.43 714.241 171.413 713.889 172.31 713.184L172.31 714.613C171.475 715.219 170.371 715.522 168.998 715.522 167.656 715.522 166.602 715.09 165.835 714.228 165.068 713.365 164.684 712.151 164.684 710.586 164.684 709.108 165.103 707.904 165.941 706.973 166.779 706.042 167.82 705.576 169.063 705.576ZM150.063 705.576C151.306 705.576 152.268 705.978 152.948 706.782 153.629 707.587 153.969 708.703 153.969 710.132L153.969 710.929 147.261 710.929C147.286 711.987 147.571 712.803 148.115 713.379 148.659 713.954 149.408 714.241 150.36 714.241 151.43 714.241 152.413 713.889 153.31 713.184L153.31 714.613C152.475 715.219 151.371 715.522 149.998 715.522 148.656 715.522 147.602 715.09 146.835 714.228 146.068 713.365 145.684 712.151 145.684 710.586 145.684 709.108 146.103 707.904 146.941 706.973 147.779 706.042 148.82 705.576 150.063 705.576ZM135.096 703.406 135.096 713.889 137.082 713.889C138.826 713.889 140.183 713.422 141.154 712.488 142.125 711.554 142.611 710.231 142.611 708.517 142.611 705.109 140.799 703.406 137.174 703.406ZM133.538 701.995 137.212 701.995C141.9 701.995 144.244 704.157 144.244 708.48 144.244 710.534 143.593 712.183 142.291 713.43 140.989 714.676 139.246 715.299 137.063 715.299L133.538 715.299ZM175.334 701.235 176.855 701.235 176.855 715.299 175.334 715.299Z" fill="url(#fill9)" fill-rule="evenodd"/><text fill="#000000" fill-opacity="0" font-family="Arial,Arial_MSFontService,sans-serif" font-size="18.4341" x="133.538" y="717.364">Developer:</text><path d="M226.508 701.995 228.224 701.995 231.054 712.2C231.172 712.627 231.246 713.073 231.277 713.536L231.323 713.536C231.354 713.209 231.45 712.763 231.611 712.2L234.552 701.995 236.045 701.995 238.866 712.275C238.965 712.627 239.039 713.042 239.088 713.518L239.125 713.518C239.15 713.196 239.234 712.769 239.376 712.238L242.094 701.995 243.783 701.995 240.025 715.299 238.198 715.299 235.461 705.576C235.343 705.162 235.272 704.711 235.247 704.222L235.21 704.222C235.173 704.68 235.093 705.125 234.969 705.558L232.214 715.299 230.405 715.299Z" fill="url(#fill10)" fill-rule="evenodd"/><text fill="#000000" fill-opacity="0" font-family="Arial,Arial_MSFontService,sans-serif" font-size="13.3037" x="226.508" y="713.636">W</text><path d="M286.009 706.857C285.291 706.857 284.682 707.113 284.181 707.627 283.68 708.14 283.371 708.811 283.253 709.64L288.384 709.64C288.377 708.762 288.166 708.078 287.748 707.59 287.331 707.101 286.751 706.857 286.009 706.857ZM292.307 705.799 293.828 705.799 293.828 715.299 292.307 715.299ZM267.99 705.799 269.585 705.799 271.552 712.943C271.614 713.159 271.657 713.444 271.682 713.796L271.756 713.796C271.775 713.524 271.83 713.233 271.923 712.924L274.113 705.799 275.504 705.799 277.471 712.961C277.533 713.19 277.579 713.475 277.61 713.815L277.684 713.815C277.697 713.573 277.749 713.289 277.842 712.961L279.772 705.799 281.275 705.799 278.427 715.299 276.849 715.299 274.892 708.499C274.818 708.239 274.768 707.945 274.743 707.617L274.706 707.617C274.688 707.84 274.623 708.128 274.512 708.48L272.387 715.299 270.866 715.299ZM265.307 705.799 266.828 705.799 266.828 715.299 265.307 715.299ZM254.897 705.799 256.585 705.799 259.155 713.11C259.186 713.202 259.251 713.444 259.35 713.833L259.406 713.833C259.437 713.685 259.498 713.45 259.591 713.128L262.291 705.799 263.868 705.799 259.498 716.821C258.719 718.787 257.624 719.771 256.214 719.771 255.818 719.771 255.487 719.731 255.222 719.65L255.222 718.286C255.549 718.398 255.849 718.453 256.121 718.453 256.888 718.453 257.464 717.996 257.847 717.08L258.608 715.281ZM245.103 705.799 246.615 705.799 246.615 711.236C246.615 713.24 247.382 714.241 248.916 714.241 249.658 714.241 250.269 713.968 250.748 713.42 251.227 712.873 251.467 712.157 251.467 711.273L251.467 705.799 252.989 705.799 252.989 715.299 251.467 715.299 251.467 713.796 251.43 713.796C250.799 714.947 249.822 715.522 248.498 715.522 246.235 715.522 245.103 714.173 245.103 711.477ZM286.036 705.576C287.28 705.576 288.241 705.978 288.922 706.782 289.602 707.587 289.942 708.703 289.942 710.132L289.942 710.929 283.235 710.929C283.259 711.987 283.544 712.803 284.088 713.379 284.632 713.954 285.381 714.241 286.333 714.241 287.403 714.241 288.387 713.889 289.284 713.184L289.284 714.613C288.449 715.219 287.345 715.522 285.972 715.522 284.629 715.522 283.575 715.09 282.808 714.228 282.041 713.365 281.658 712.151 281.658 710.586 281.658 709.108 282.077 707.904 282.915 706.973 283.753 706.042 284.793 705.576 286.036 705.576ZM293.086 701.411C293.365 701.411 293.601 701.505 293.796 701.694 293.991 701.883 294.088 702.119 294.088 702.404 294.088 702.676 293.991 702.908 293.796 703.099 293.601 703.291 293.365 703.387 293.086 703.387 292.814 703.387 292.582 703.294 292.39 703.109 292.199 702.923 292.103 702.688 292.103 702.404 292.103 702.119 292.199 701.883 292.39 701.694 292.582 701.505 292.814 701.411 293.086 701.411ZM266.086 701.411C266.365 701.411 266.601 701.505 266.796 701.694 266.991 701.883 267.088 702.119 267.088 702.404 267.088 702.676 266.991 702.908 266.796 703.099 266.601 703.291 266.365 703.387 266.086 703.387 265.814 703.387 265.582 703.294 265.39 703.109 265.199 702.923 265.103 702.688 265.103 702.404 265.103 702.119 265.199 701.883 265.39 701.694 265.582 701.505 265.814 701.411 266.086 701.411Z" fill="url(#fill11)" fill-rule="evenodd"/><text fill="#000000" fill-opacity="0" font-family="Arial,Arial_MSFontService,sans-serif" font-size="18.3599" x="245.103" y="717.476">uyiwei</text><path d="M15.5588 696 13 696 13 725 42 725 42 722.441 15.5588 722.441Z" fill="#00529C" fill-rule="evenodd"/><path d="M18 705 22 705 22 720 18 720Z" fill="#00529C" fill-rule="evenodd"/><path d="M24 696 29 696 29 720 24 720Z" fill="#00529C" fill-rule="evenodd"/><path d="M31 705 35 705 35 720 31 720Z" fill="#00529C" fill-rule="evenodd"/><path d="M37 712 42 712 42 720 37 720Z" fill="#00529C" fill-rule="evenodd"/></g></svg>